<?xml version="1.0" encoding="UTF-8" standalone="no"?><!DOCTYPE svg PUBLIC "-//W3C//DTD SVG 1.1//EN" "http://www.w3.org/Graphics/SVG/1.1/DTD/svg11.dtd"><svg width="100%" height="100%" viewBox="0 0 460 460" version="1.1" xmlns="http://www.w3.org/2000/svg" xmlns:xlink="http://www.w3.org/1999/xlink" xml:space="preserve" xmlns:serif="http://www.serif.com/" style="fill-rule:evenodd;clip-rule:evenodd;stroke-linejoin:round;stroke-miterlimit:2;"><circle cx="229.735" cy="229.735" r="183.477" style="fill:#3865ab;"/><path d="M229.735,-0c126.794,-0 229.735,102.941 229.735,229.735c0,126.794 -102.941,229.735 -229.735,229.735c-126.794,0 -229.735,-102.941 -229.735,-229.735c-0,-126.794 102.941,-229.735 229.735,-229.735Zm0,22.974c114.115,-0 206.762,92.646 206.762,206.761c-0,114.115 -92.647,206.762 -206.762,206.762c-114.115,-0 -206.761,-92.647 -206.761,-206.762c-0,-114.115 92.646,-206.761 206.761,-206.761Z" style="fill:#84aff1;"/><g><path d="M206.205,336.557l0,-26.916c-19.997,-0 -24.047,-7.678 -24.047,-23.963l-0,-24.639c-0,-12.994 -5.569,-24.638 -30.039,-29.616l0,-3.375c24.47,-4.979 30.039,-16.623 30.039,-29.533l-0,-24.638c-0,-16.369 4.05,-24.048 24.047,-24.048l0,-26.832c-34.088,0 -58.473,5.653 -58.473,47.252l-0,18.647c-0,17.298 -6.498,24.639 -25.905,24.639l0,32.401c19.407,-0 25.905,7.34 25.905,24.638l-0,18.732c-0,41.598 24.385,47.251 58.473,47.251Z" style="fill:url(#_Linear1);fill-rule:nonzero;"/><path d="M253.265,122.913l-0,26.916c19.997,0 24.047,7.679 24.047,23.964l0,24.638c0,12.994 5.569,24.638 30.039,29.617l-0,3.375c-24.47,4.978 -30.039,16.622 -30.039,29.532l0,24.638c0,16.37 -4.05,24.048 -24.047,24.048l-0,26.832c34.088,0 58.474,-5.653 58.474,-47.252l-0,-18.647c-0,-17.298 6.497,-24.638 25.904,-24.638l-0,-32.401c-19.407,-0 -25.904,-7.341 -25.904,-24.639l-0,-18.732c-0,-41.598 -24.386,-47.251 -58.474,-47.251Z" style="fill:url(#_Linear2);fill-rule:nonzero;"/></g><defs><linearGradient id="_Linear1" x1="0" y1="0" x2="1" y2="0" gradientUnits="userSpaceOnUse" gradientTransform="matrix(1.52778e-14,287.56,-249.506,1.7608e-14,239.239,68.8262)"><stop offset="0" style="stop-color:#f2cc0c;stop-opacity:1"/><stop offset="1" style="stop-color:#ff9830;stop-opacity:1"/></linearGradient><linearGradient id="_Linear2" x1="0" y1="0" x2="1" y2="0" gradientUnits="userSpaceOnUse" gradientTransform="matrix(1.52778e-14,287.56,-249.506,1.7608e-14,239.239,68.8262)"><stop offset="0" style="stop-color:#f2cc0c;stop-opacity:1"/><stop offset="1" style="stop-color:#ff9830;stop-opacity:1"/></linearGradient></defs></svg>